<svg xmlns="http://www.w3.org/2000/svg" viewBox="0 0 566 594"><path fill="#f2ae40" d="M462.4 128.8c8.7-6.8 60.7 13.7 60.7 13.7 2-14 2.9-49.2 2.9-49.2l8.7-2.9s7.6 59.4-.5 67.6-66.2 0-66.2 0z"/><path fill="#874f3c" d="M537.2 535.2a25.2 25.2 0 01-3.6-4.7c-2.9-4.6-8.5-3.6-8.5-3.6-1.7 1.5-2 8.4-2 10H521c-.8-2-3.4-10.8-2.6-14.1l3.5-11.8a9.8 9.8 0 00.5-2.4c-2.4-10-10.7-44.5-25.1-72.3-11.4-22-15.1-30.8-17.4-50.6s-20.3-69.2-20.3-69.2 25.3-68.8 35.8-26 11.8 95.2 13.5 105.6 17.4 83.9 26.7 114.6a65 65 0 0013.8 20.3h.1a12.3 12.3 0 014.5 2.3 10 10 0 011.6 1.8z"/><path d="M537.2 537c-1.9 0-5.4-4-8-6-2.4-1.7-3.7-1.7-3.7-1.7-1.7 1.5-2.4 6-2.5 7.6h-2c-.8-2-3.4-10.8-2.6-14.1.7-2.7 2.2-6.4 2.7-11.4 6.7-3.9 12.5 9.2 21.3 16.5 4.4 3.7 7 3 7 3h.2a24 24 0 015.4 1.7c3.6 2.2 3.7 3.6 4.2 4.3z"/><path fill="#874f3c" d="M416 304.3c-2.9 43.6 5.4 54.4 8.6 72.3 2.4 13.5-4.5 33.2 2.5 55 4.6 14.5 15 76.2 15 76.2v25.6h17.1s-6.7-28.3-6.7-39c0-46-6.4-100.7-5.4-121.5.9-20.4 7.7-60.5 7.7-60.5z"/><path fill="#404041" d="M509.6 370s-15.3 7-46 8.6c-11.5.7-20.4.6-27 .3a352.8 352.8 0 01-13.1-50.4s-5.3 27-1.7 49l-2.4-.6c-21.2-104.4 18-139.8 18-139.8 25.3-11.6 49.9-2.3 49.9-2.3s16.6 37 22.3 135.2z"/><path fill="#fff" d="M462.4 128.8s-7.5 6.8-23 10.3-26-1.7-35 6.6c-13.8 13 9.4 43 19.6 57.2a85 85 0 0113.3 34.3s26.8 7.7 50-2.4l1.6-32.8s14.6-44.3-26.5-73.2z"/><path d="M414.8 78.2a14.9 14.9 0 00-12.1-4c-7.8.7-8.3 17.3-4.3 25.2s-9.9 14-8.6 20.5 9.9 12.4 2.8 14.7.9 10.9 9.6 5.5-2.8-17.4 4.5-18.7 11.8-20 8-29.4 0-13.8 0-13.8z"/><path fill="#874f3c" d="M423 75.6s29.5-10 35.4 10.9.9 40.8-15 40.3c-19.7-.7-43.4-39.5-20.5-51.2z"/><path d="M445.9 98s-1.8-1.7-2.8-1.5a4.6 4.6 0 00-2.1 1.7l-2.3-.8 2 .2a2.8 2.8 0 012.4-1.5c1.6 0 2.8 1.8 2.8 1.8zm9.1-.6c0 1.4.8 2.4 1.6 2.4s1.5-1.2 1.4-2.6-.9-2.3-1.7-2.3-1.5 1.2-1.4 2.5z"/><path d="M454.1 97s.7-3 1.8-3 3 2 3 2l2-1.5-2 .7s-1.7-2.3-3.2-1.8-1.6 3.7-1.6 3.7zm-14-5a.6.6 0 00.5-.3 4.1 4.1 0 013.6-1.7.6.6 0 00.7-.5.6.6 0 00-.5-.7 5.3 5.3 0 00-4.8 2.3.6.6 0 00.1.8.6.6 0 00.4.1zm13.6-3.1a.6.6 0 00.4-.2 4 4 0 014-.5.6.6 0 00.5-1.1 5.3 5.3 0 00-5.3.7.6.6 0 00.5 1z"/><path fill="#a35f50" d="M454.2 101.2s5.3 0 4.8 2-3.6 4.2-3.6 4.2-2.4-3.8-1.2-6.2z"/><path d="M434.7 86.3s-6.8 8.6-6.4 19.8c0 0-5-6.1-7.6-.8s7.8 13 7.8 13-.5 3.4-6.5.4c-4-2.1-14.9-12.4-12.2-21.1s11-17.5 24.9-11.3z"/><path fill="#633123" d="M428.9 113.6c2.3 6.1 10.8 15.4 20 12.4 0 0-1 7.3 2.7 10.6v12l-23.5-12.4c2-18.3-2.5-20.4-2.5-20.4 2.5 1.6 3.3-2.2 3.3-2.2z"/><path d="M447 110.7s4.9-.8 6.9 2.9m-9.7-33.5S433.3 95.6 422 101s-19.9 3.3-12.7-18.7c0 0 3-7.5 10.3-10.6 21-9 27.4-1.7 27.4-1.7 13.7-3.4 21 12.3 12.8 22.9a8.3 8.3 0 00-3.8-7.5c-3.8-2.3-7.3 0-11.8-5.2zm-5 456.9c-.5-3.8.5-10 .5-13.2 0-3.8 2.3-13.5 2.3-13.5.7 6.9 2.6 11.2 3.5 14.7s7.6 2.6 8.9 0 0-14.7 0-14.7c3 5 2.1 11.8 4.8 14.1 2 1.7 2.1 9.2 2 12.5z"/><path fill="#e3e4e5" d="M480.8 87.7l-21.7 4.7c-.7.2-1 1.9-.6 3.8s1.3 3.3 2 3.2l21.8-4.3z"/><path fill="#fff" d="M510.6 80.2L479.4 87c-1 .2-1.5 2.5-1 5s1.8 4.4 2.9 4.2l31.2-6z"/><path fill="#e3e4e5" d="M543.6 72.3l-40 8.8c-1.4.3-2 3-1.4 6s2.2 5.3 3.6 5l40.3-7.8z"/><path fill="#fff" d="M563.7 82c-2 .4-4.3-2.5-5.1-6.5s.1-7.5 2-8S565 70 566 74s-.2 7.6-2.2 8z"/><path fill="#fff" d="M560.7 67.5l-26 5.8c-1.8.4-2.6 3.8-1.8 7.5s2.8 6.5 4.6 6.2l26.2-5z"/><path fill="#164353" d="M563.5 81c-1.8.4-3.8-2.1-4.5-5.6s.1-6.6 1.9-7 3.8 2.1 4.5 5.6-.1 6.7-2 7z"/><path fill="#ffc24e" d="M454.1 130.2s22.9 18 19.3 58.6l-.6 54.1 11.6 44.5s14.4-8.8 15.8-14.8l-11.5-39.1s7.2-60.5 2.7-73c-6.5-18-29-31.7-29-31.7z"/><path fill="#ffc24e" d="M422.7 139s-33.4-.4-20.9 29.6 31.5 45.3 32.9 64.5c0 0-14 25.2-17.5 39.4l46.1 19.3 10.1-46.4s4.3-43.7 0-59.4-42-44.8-50.7-47z"/><path fill="#e3e4e5" d="M424 135.3l4.7-5.7s16.3 5.2 23.8 20.7l-9.1-5.9-9.3 3.8s-9-7-10.2-13z"/><path fill="#874f3c" d="M517.2 85.3l2.4 5.1s5 2.5 6.4 2.9 8.4-.2 8.7-2.9a6.6 6.6 0 00-.5-3.7l-5.3 1s-1.6-.9-4.8.5-4.2-2.7-6.9-2.9z"/><path fill="#f2ae40" d="M421 134s45.4 16.1 52.4 52c0 0-22.1-20-38.4-24.3l2-11.4-23.7-.9s1.2-5.3 0-9c0 0 6.5-3.2 7.6-6.3z"/><path fill="#874f3c" d="M476.7 106.2l-3.9-6s1.2 0 2-2.3.5-7.8 2-9.4 3.6-4 4.5-2.3c0 0 2.7-2.3 3.7.5 0 0-1.2 1.1-.7 1.8s2-2 3.9-2.5 1.5 1 1.5 1a26.9 26.9 0 00-2.3 4c-1.3 2.7 1.4-.8 2.3-1.3l2.7-1.4s1.8-.2 0 1.5-3.3 5.6-3.8 8.5-.5 3.7-2.9 7.8-9 0-9 0z"/><path fill="#f2ae40" d="M448.9 130.2s4.8-3.8 23.4 8.8l-3 6 15.6 13s-5.7 22.6-11.3 28.7c0 0 3.5-45.3-24.7-56.5z"/><path fill="#e3e4e5" d="M448.9 130.2s8.3 2.1 11.8 12.7h-7.5l-.7 7.4s-5.9-13.8-3.6-20.1z"/><path fill="#f2ae40" d="M37.8 155.5s-22.7 15.2-33.3 42 .1 31 7.2 27.3 44.6-40 44.6-40z"/><path fill="#874f3c" d="M210.2 241.6a15.2 15.2 0 00.6-1.4s-1.3-.9-2.9.9a1.6 1.6 0 00-.1.1l.6-1.4s-1.4-1-3 .8c-.8 1 .1 2-2 3a4.3 4.3 0 00-1-1 4.8 4.8 0 01-1.4-1.6v.9a2.4 2.4 0 00-.5-.4 4.8 4.8 0 01-1.4-1.5v2.2a4.3 4.3 0 00-1-1.1 4.8 4.8 0 01-1.4-1.5v8.2a22.8 22.8 0 002.4.1v.3l1.9.1v.9a23.6 23.6 0 002.7.2c6.3.1 9-8.2 9-8.2a2 2 0 00-2.5.4zm-2.7.1c-.2.7 0 1.5-1.2 2.1a17.7 17.7 0 001.2-2zm.9 3l.8-1.2a1.8 1.8 0 01-.8 1.2z"/><path d="M171.1 542.1v-4.7c0-5.5-5-15.4-5-19s-14.1 3-14.1 3a17.5 17.5 0 01-5 10.6 13.5 13.5 0 00-3.4 10.1zm-96 0l2.5-1.1 1 1.1H88c1-2.6 4-12.8 1.2-19.8-3.3-8.2-13.4-6-13.4-6s-7 9.6-11 11.3-19.2 8-21 12c-.6 1.1.4 2 0 2.5z"/><path fill="#404041" d="M106.3 237.7c-5.3 76.5-19.7 176.6-35.3 282 0 0 3 5 20.4 2.4L145 298.3a1.5 1.5 0 013 .5c.6 16.9 6 68.5 3.1 224 0 0 9.2 5 18.9 0 0 0 34.5-230 26.6-274z"/><path fill="#ffc24e" d="M197 246.4c0 6.8-14 32.9-56.8 26-24.3-3.8-35.4-15.6-35.4-15.6s-77.6-65.5-71.2-94.6c2.2-10 27.8-25.2 47-24.3a131.4 131.4 0 0149.9 13c20.3 7.6 66 69.6 66.4 95.5z"/><path fill="#ff7b00" d="M59.8 153.2s2 10.6 8.7 18.7a606.6 606.6 0 015.3 95.4l3.4 6.3 9.9-7.3s-7-65.8-13.7-94.6c0 0 4.1-13.7 10-17.9s-3.7-5.6-3.7-5.6z"/><path fill="#f2ae40" d="M65.6 138c-6.2 2.5-12 12.6-6.8 26.3 0 0 .8-5.7 3.8-5.7s5 3.6 5 3.6l8.9-7.4s.3-21.6-11-16.9z"/><path fill="#874f3c" d="M73.2 117.5c4.8 26.1-22.6 34.4-30.8 25.8a58.8 58.8 0 01-9.2-18.1c-2.8-9.4-3.6-19.4 1.4-22.9 17.2-12.2 33.8-10.9 38.6 15.2z"/><path d="M30.8 109s8.7-11.2 26.9-10.7c0 0 7.3 13.7 10 20 0 0 7 .7 4 15.2 0 0 8.2-2.7 4.5-25.3C73 88.5 61.1 92.4 61.1 92.4S55 81.8 42.4 87s-17.1 11.3-21 6-7.5 17.7 9.4 16zm7.8 12c.4 1.4 0 2.8-.7 3s-1.8-.8-2.1-2.2-.1-2.7.7-3 1.7.8 2.1 2.2z"/><path fill="#a35f50" d="M41.6 122.6s-1.5 6.3-4.3 6.1.8 5.4 7.3 1.5c0 0 .9-3.9-3-7.6zm16.4-3.2a2.8 2.8 0 11-3.4-.4 2.5 2.5 0 013.5.4z"/><path fill="#a35f50" d="M37.3 127.2a2.5 2.5 0 01-2.6 2.1l-1.4-4a3.3 3.3 0 011.3-.3 2.5 2.5 0 012.7 2.2z"/><path d="M43.4 115s2-2.3 4.7-2.4m-12.9.4s-3.2.4-3.1 2.2"/><path fill="#874f3c" d="M67.7 118.3s2.8-6 7.5-4 .6 12.7-3.7 13.4-3.8-9.4-3.8-9.4z"/><path d="M46.7 119.3s.7-3.4 4.7-1.5c0 0-3.4-.6-4.7 1.5zm5.7 10.5s-6.5 2.6-7.7 7.2"/><path fill="#874f3c" d="M75.6 128.5s1 5 11.5 12.6c0 0-6 14.3-19.5 17.1 0 0-5.6-9.3-11.3-12.2 0 0 11.3-2.2 16-16.6 0 0 2.2.4 3.3-.9z"/><path fill="#f2ae40" d="M79.7 134.7s3 7.3 0 13.5a21.2 21.2 0 01-8 9s5.5 3.8 7 7.1c0 0 11.1-10.4 11.6-19.2s-10.6-10.4-10.6-10.4zm50.7 16.1c-17.3.8-3.8 28.5 4 34s74 9 74 9l-16 30.6s-3.3 13.5 10.8 13.3c0 0 34-41.5 35.5-56.3s-62.7-32.8-108.3-30.6z"/><path fill="#995b4d" d="M192 227.8s-4 2.1-3 10 7.7 11.8 13.8 13.3 10.6-5.9 10.6-5.9-1.1-1.1-3 .2c-1.5 1 .2 2.8-5.8 2.5 0 0-.6-2.8-1.6-3.8-2.1-2.1-1.8-9.2-1.8-9.2z"/><path fill="#b8babc" d="M251.4 243.2c-4 47.4-18.7 230.5-16.2 329.3h23.2l4-32.6q4.6-37.7 9.7-75.4a3392 3392 0 0112.2-84.6c3.2-20.1 6.1-40.7 11.6-60.3a53.6 53.6 0 012.2-6.7c1.7-4 3.4-4.2 8.2-4 5.6 0 7.3 13.2 8.3 17.3 2.3 9.8 4.1 19.6 5.8 29.5 4.9 27.3 8.9 54.7 12.7 82.2q5.8 41.6 11 83.3l6 48.7.3 2.6h23.2c2.5-98.8-12.2-282-16.1-329.3z"/><path fill="#ff871a" d="M360.8 209.7l-.8 14.2c-.5 9.6-1 19.6-1.3 29.8 0 0-27.6-6.3-52.5-6.3-27.4 0-55.3 6.3-55.3 6.3-.5-10.8-1-20.9-1.7-30.5l-1.4-22.5c-6.2-85.6-13.5-115.7-.4-123.8 5.6-3.5 57.5 4.4 57.5 4.4s49.8-2 56.1-2.8c12-1.7 4.5 52.5-.2 131.2z"/><path fill="#c18778" d="M318.4 49.7l-12.6 9.6a26.3 26.3 0 01-15.4 1 75.1 75.1 0 01.3 22.4l13 7.5 13.6-6.4s-2-22.5 1-34.1z"/><path d="M287 53.9s-12-11.3-11-28 9.1-19.2 12.3-19.8c0 0 3-6.6 17.1-6 9.7.3 18.6 5 23.6 15 5.3 10.5 1.8 35-6.9 38.8z"/><path fill="#c18778" d="M282.5 37.8s-6.3-6.3-7 1c-1 8.5 6.8 11.9 8.3 9.2s-1.3-10.2-1.3-10.2zm43.8.4s6.3-6.3 7 1c1 8.5-6.8 11.9-8.3 9.2s1.3-10.2 1.3-10.2z"/><path fill="#c18778" d="M303.7 68.4c-13.9 0-21.7-9-21.7-36.3 0-14 7.1-22.6 22.7-22.6S326.8 18 326.8 32c0 29.3-8.7 36.3-23 36.3z"/><path fill="#a35f50" d="M322.2 41.8c.3 1.4-1 2.8-2.7 3.1s-3.3-.6-3.6-2 1-2.8 2.7-3 3.4.5 3.6 2zm-28.6.8c0 1.4-1.6 2.5-3.3 2.3s-3.2-1.3-3-2.7 1.6-2.5 3.3-2.4 3.1 1.4 3 2.8z"/><path d="M315.9 27.7a.7.7 0 01-.5-.2c-2-2-5.3-2-5.4-2a.7.7 0 01-.7-.6.7.7 0 01.7-.7c.1 0 4-.1 6.4 2.3a.7.7 0 01-.5 1.2zm-26.2 0a.7.7 0 01-.5-.2.7.7 0 010-1c2.4-2.5 6.3-2.4 6.4-2.4a.7.7 0 01.7.7.7.7 0 01-.7.7s-3.5 0-5.4 2a.7.7 0 01-.5.2zm25 7.3c0 1.8-.8 3.2-1.8 3.2s-1.7-1.4-1.7-3.1.8-3.2 1.7-3.2 1.8 1.4 1.8 3.2zm-18.6 0c0 1.8-.8 3.2-1.7 3.2s-1.8-1.4-1.8-3.1.8-3.2 1.8-3.2 1.7 1.4 1.7 3.2z"/><path fill="#a35f50" d="M303.8 35c1.3-.7 4.6 11.3 1 12.2s-2.5-11.2-1-12.1z"/><path d="M296.1 50.5s12.3 1.2 18.6-1.2c0 0-3.6 6.5-10.3 5.9s-8.3-4.8-8.3-4.8zm-5.7-35s12.4 10.8 33.6 9.3l2.3 17.1S338.7 6 302.4 6s-20 35.1-20 35.1-1.8-14.4 8-25.6z"/><path fill="#ffc24e" d="M324.6 80.5c-1.3 6.3-11.6 15.3-11.6 15.3l-4.8-6.8-4.5 3-5.1-3-6 5.1s-9.4-12-8.4-15.4 7.2-5.2 7.2-5.2a8.4 8.4 0 006.8 8.3l5.4 6.5 5-4.8c6-.2 8.2-8.6 8.2-8.6a14.9 14.9 0 017.8 5.6z"/><path fill="#f2ae40" d="M298.2 83.5l5.5 8.4-5.1-2.9-6 5.1c.3-.5 3.8-7.5 5.6-10.6zM313 95.8l-4.8-6.8-4.5 3 5.6-7.3s5.8 5.8 3.7 11.1zm-65.2-18.2s3.2 38-6 51.4-25.7 62-38.9 57.9-17.6-21.6 0-47 32.8-64 45-62.3z"/><path fill="#ffc24e" d="M193.7 161.8c4-13.2 17.5-19.8 20.8-18s10.2 12.3 5.7 27.5-17 21.6-24.7 12-1.8-21.5-1.8-21.5z"/><path fill="#c18778" d="M216.5 140.1s-7.7 11.2-7.7 19.4a30.8 30.8 0 00-2.4 2.4c-2.2 2.4-5.1 10-1.2 14.1s9.3-3.7 9.3-3.7c3.4-.2 11-9.2 10.7-15.5s-8.7-16.7-8.7-16.7z"/><path fill="#f2ae40" d="M363 80s-6.2 37.7 3 51 25.6 62 38.8 58 17.7-21.6 0-47-29.6-63.8-41.8-62z"/><path fill="#ffc24e" d="M414.1 163.8c-4-13.1-17.5-19.7-20.8-17.9s-10.2 12.3-5.7 27.4 17 21.7 24.7 12 1.8-21.5 1.8-21.5z"/><path fill="#c18778" d="M391.3 142.1s7.6 11.2 7.6 19.5a29 29 0 012.5 2.3c2.2 2.4 5 10 1.2 14.2s-9.3-3.7-9.3-3.7c-3.4-.3-11-9.3-10.7-15.6s8.7-16.7 8.7-16.7z"/><path fill="#fff" d="M401.6 99.5s-18.7 35.4-19.8 55.5 3.2 57.6 3.2 57.6h-17.9l-16.4 10.2-24.6-3-19.2 4-20-9.4-25.1 5.5-16.4-11.9-21.2 5s3-45.8-.4-60.7-13.5-57-13.5-57l29.1-6 17.6 19.9 30-6.3 21.4 14 20.1-12 23.1 7.2 18.9-14z"/><path fill="#b8babc" opacity=".3" d="M263 167l-1.3 52.9-16.3-11.9c1.4-77.4-6-118.5-6-118.5l17.6 19.7zm23.9-64.2v111.6l20 9.5V167l1.5-50.2-21.5-14zm41.6 2l-3.5 58.6 1.1 56.5 24.6 3s-6.7-54.6-6.7-59.5 7.6-51.4 7.6-51.4zm73.1-5.3s-18.7 35.4-19.8 55.5 3.2 57.6 3.2 57.6h-17.9l-4.8-49.3 8.2-65.3z"/><path fill="#c18778" d="M216.5 140.1s7-3.7 9.6-3.5 9.2 3.5 9.2 3.5-.5 3.3-2.6 2-4.1-1.4-6.8 0l5.3.3 6 2.8s-1 2.9-2.4 2.4l-4.8-1.7-3.2 1.7s6 1.2 6.8 1.9l3.6 3s-1 2.6-3.1 1.1-6.3-1.1-6.3-1.1 3.6 1.5 4.1 2.8a45.6 45.6 0 002.2 4.1s-.7 1.7-2.4 0-8.5-1-8.5-1-6.2-9.8-6.7-18.3zm174.8 2s-7-3.6-9.7-3.5-9.1 3.5-9.1 3.5.4 3.4 2.6 2 4.1-1.3 6.8 0l-5.3.3-6 2.8s1 2.9 2.3 2.4l4.9-1.7 3.1 1.8s-6 1.1-6.8 1.8l-3.6 3s1 2.6 3.2 1.1 6.2-1 6.2-1-3.6 1.5-4 2.7a46.2 46.2 0 01-2.2 4.1s.7 1.7 2.4 0 8.5-1 8.5-1 6.2-9.8 6.7-18.3z"/><path d="M259.5 594a146.3 146.3 0 00-4-29.3s-17.7-7.2-19.5 4.7-11.5 14.7-16.4 15.8c-3.2.7-3.8 5.5-4 8.9zm89.8 0a145.9 145.9 0 014-29.3s17.7-7.2 19.5 4.7 11.5 14.7 16.4 15.8c3.2.7 3.9 5.5 4 8.9z"/><path fill="#ffc24e" d="M484 107.6s-1.5 65.7-7.5 72.9-62.5 1.2-70.6-7c-4.3-4.3-5.7-11.6-5.2-17.6.5-5.3 2.4-9.5 5.2-9.7 12.8-1 57.7 16.3 57.7 16.3l12-57.4s3.4-3 8.3 2.5z"/><path fill="#f2ae40" d="M484 107.6s-1.5 65.7-7.5 72.9-62.5 1.2-70.6-7c-4.3-4.3-5.7-11.6-5.2-17.6s3 13.5 9.4 18 49.8 10.6 64.7 4.5c3.4-1.4 9.1-70.8 9.1-70.8z"/></svg>